<?xml version="1.0" standalone="yes"?>
<svg xmlns="http://www.w3.org/2000/svg" width="1024" height="1024">
<path style="fill:#f8d5e9; stroke:none;" d="M448 168C446.519 170.829 443.909 173.017 442.741 176.015C440.368 182.104 440.022 191.949 442.483 198C443.93 201.557 446.451 204.501 448 208C453.195 209.109 457.528 211.175 463 210.96C466.958 210.804 471.811 208.14 475.6 209.183C482.492 211.08 488.24 217.916 494.001 221.871C502.193 227.495 511.529 232.364 519.996 237.732C523.85 240.175 527.851 243.217 532 245.095C536.454 247.111 542.765 248.421 545.146 253.339C547.104 257.386 546 263.617 546 268C546 280.332 545 292.621 545 305C545 347.917 546 391 546 434L546 770L546 877L546 911C546 916.429 546.842 922.667 545.721 927.995C544.144 935.495 534.404 939.45 528.424 942.583C515.178 949.522 502.796 958.446 489.995 966.151C485.736 968.715 480.728 973.671 476 975.027C472.95 975.902 469.979 973.592 466.985 973.188C459.245 972.145 450.886 973.474 446.21 980.379C437.286 993.556 439.06 1012.05 454.09 1019.56C463.673 1024.35 478.171 1019.11 480 1008L484 1008C484.462 997.428 490.859 994.859 498.661 989.417C503.012 986.382 506.724 983.196 512 982L512 978C524.336 975.418 534.024 965.751 544.714 959.729C548.437 957.632 553.267 953.893 557.83 954.694C561.799 955.392 565.231 959.27 568.514 961.37C571.095 963.021 574.096 963.718 576.74 965.221C581.186 967.748 585.005 971.508 589.169 974.435C600.613 982.481 613.779 988.414 625.753 995.58C634.22 1000.65 642.274 1009.21 652.911 1007.87C658.049 1007.22 661.915 1003.49 666.079 1000.8C673.407 996.079 680.499 991.518 687.576 986.433C701.201 976.642 716.793 970.058 730.985 961.226C737.369 957.253 743.262 953.382 749.829 949.688C753.333 947.717 756.082 945.071 760 944C763.364 937.871 770.928 936.599 776.41 932.851C793.34 921.275 811.675 912.042 828.3 900.116C833.657 896.273 841.091 894.351 844.88 888.534C849.883 880.853 848 869.667 848 861L848 799L848 782C848.001 779.195 847.568 775.824 849.028 773.29C851.301 769.343 856.219 767.273 860.039 765.21C865.777 762.111 871.258 758.548 876.911 755.314C883.157 751.741 889.012 745.911 896 744L896 741C903.531 740.229 908.963 735.018 915.089 731.005C924.798 724.646 937.758 721.047 940.522 707.961C942.246 699.796 941 690.321 941 682L941 632L941 472C936.712 470.051 934.886 465.936 931.164 463.295C929.356 462.011 927.07 461.674 925.17 460.531C917.312 455.807 909.785 450.202 901.816 445.733C895.772 442.345 885.448 438.074 882 432C876.462 431.577 874.371 427.843 869.833 425.26C864.656 422.313 859.059 421.655 856 416L851 416L851 412L848 412L848 318C848 305.264 848.211 290.302 832 288C830.049 282.318 818.218 278.006 812.925 275.369C807.794 272.812 804.364 268.544 799.561 265.687C796.551 263.896 792.931 263.397 789.835 261.695C784.205 258.6 778.802 254.255 773.26 250.84C748.487 235.576 724.098 219.812 699.093 204.965C691.622 200.529 685.144 195.057 677.275 191.121C668.78 186.872 658.987 175.745 649.003 176.099C644.756 176.249 642.255 179.386 638.789 181.36C634.06 184.055 628.766 185.736 624.089 188.481C621.004 190.293 618.661 193.058 615.586 194.911C608.969 198.897 602.548 203.861 595.7 207.364C591.146 209.693 585.747 210.684 584 216C579.148 216.322 574.41 218.346 570.764 221.663C566.827 225.244 561.718 232.739 555.286 231.056C549.707 229.596 544.645 224.199 539.87 221.145C535.483 218.339 530.454 216.761 526.17 214.006C522.968 211.948 520.714 208.686 517.486 206.659C514.642 204.872 511.243 204.346 508.455 202.431C501.798 197.857 493.242 190.244 485 190C484.999 176.453 477.49 165.306 463 165.015C457.475 164.905 453.268 167.314 448 168M684 224C688.734 224.644 694.34 227.321 696 232C701.454 232.367 704.46 235.581 709.015 238.216C712.602 240.291 716.419 241.874 720 244L720 247C714.938 248.868 711.333 251.967 706.83 254.752C695.491 261.766 684.496 269.747 672.911 276.335C666.67 279.883 660.934 283.662 654.753 287.245C649.999 290.001 644.69 292.858 641.863 297.805C637.639 305.193 640 317.737 640 326C640 347.715 639 369.332 639 391L639 494L639 523C639 528.469 638.447 534.559 640.728 539.696C642.694 544.122 646.778 545.254 650.54 547.665C653.905 549.822 656.701 552.777 660.089 554.946C672.738 563.042 686.18 569.451 698.576 577.785C705.618 582.519 713.792 589.786 722 592C722 605.762 729.526 617.804 744.999 615.71C750.674 614.942 754.461 610.81 760 610C760.586 605.627 763.609 602.375 763.945 597.985C764.342 592.802 764.818 586.005 763.196 581.019C762.072 577.565 759.623 576.117 756.725 574.255C747.231 568.155 738.641 570.78 728 571C725.7 567.137 721.657 566.306 717.959 564.031C713.975 561.58 711.884 558.64 707 558C704.478 553.38 697.856 551.242 693.31 548.714C689.879 546.806 687.146 543.849 683.829 541.75C680.378 539.566 676.545 538.375 673.12 536.086C669.528 533.685 665.481 532.301 664 528L660 528L660 377L660 331C660 325.302 658.363 316.572 660.589 311.264C661.853 308.25 665.415 306.934 667 304L672 304C673.686 299.029 678.665 298.172 682.911 295.819C688.534 292.703 694.593 289.13 699.961 285.603C703.512 283.269 705.671 280.67 710 280C711.371 275.31 718.772 273.731 722.801 271.268C726.439 269.045 730.374 267.554 734 265.319C736.671 263.674 739.743 260.962 743 260.731C746.983 260.45 750.946 264.103 754.134 266.056C762.792 271.357 771.638 276.214 780.245 281.588C785.622 284.945 798.229 289.846 800 296C805.181 296.349 808.307 299.075 812.439 301.951C816.329 304.658 821.808 305.711 824.682 309.785C826.8 312.787 826 317.535 826 321L826 347L826 392C826 397.211 827.693 406.121 824.976 410.74C820.78 417.874 808.723 422.467 801.999 426.925C796.55 430.538 790.547 436.27 784 437L784 440C773.464 441.38 766.374 451.556 756.925 455.138C753.425 456.465 750.353 454.167 746.985 453.478C743.403 452.745 739.635 453 736 453L736 456C723.485 459.424 717.617 475.34 722.684 486.871C727.515 497.862 742.093 502.916 752.892 498.401C756.027 497.091 759.292 492.486 761.421 489.83C764.851 485.549 764.997 481.258 765 476C769.041 474.259 773.786 471.844 776 468C786.049 465.819 793.798 457.408 802.26 452.285C805.723 450.188 809.56 449.719 812.911 447.192C817.432 443.783 821.702 441.498 826.576 438.745C829.85 436.895 832.919 434.299 836.911 434.319C840.128 434.334 842.409 436.839 845.015 438.371L858.166 446.24C871.063 453.78 883.991 461.471 896.826 469.021C903.719 473.075 911.23 480.163 919 482L919 652L919 690C919 696.458 919.766 702.787 912 704C909.885 709.829 901.174 712.44 896.004 715.035C884.01 721.053 873.738 734.057 860 736C858.323 741.392 853.386 743.837 848 744L848 697C848 689.321 846.877 680.665 848.148 673.09C848.79 669.265 852.19 667.775 854.263 664.826C857.771 659.837 858.806 651.859 857.545 646C856.018 638.906 851.797 630.934 844.907 627.684C832.696 621.925 817.702 632.667 815.339 645.015C814.294 650.477 815.076 657.119 818.143 661.83C821.237 666.582 825.739 668.85 825.982 675.015C827.749 719.853 826 765.122 826 810L826 853C826 859.023 827.378 866.991 825.682 872.79C824.247 877.699 815.234 881.964 811.075 884.456C805.551 887.766 799.676 890.471 794.17 893.802C789.94 896.36 786.43 899.978 782.112 902.45C776.851 905.462 771.103 906.196 768 912C762.54 912.712 756.923 916.085 752.424 919.205C749.31 921.365 746.261 924.84 742.09 924.396C739.606 924.131 737.674 922.238 735.551 921.114C730.14 918.249 725.198 915.215 720 911.937C710.461 905.922 700.486 900.606 691.114 894.335C684.837 890.134 678.978 885.113 672 882L671 872C667.383 870.733 667.589 868.128 665.273 865.414C662.965 862.708 658.039 860.011 654.714 858.768C644.396 854.909 629.282 865.363 628.109 876.001C627.16 884.601 631.742 890.868 632 899C637.693 900.437 641.947 903.988 648 904.713C653.509 905.373 659.484 902.744 664.83 904.559C670.607 906.522 675.15 910.886 680.184 914.044C687.626 918.711 695.19 922 702.13 927.424C707.706 931.782 718.878 934.368 720 942C712.238 942.505 708.056 948.038 701.83 951.924C691.67 958.267 681.203 964.099 671.039 970.445C666.051 973.56 661.35 977.255 655.961 979.691C647.154 983.673 645.426 979.768 637.87 976.459C633.633 974.604 628.596 972.648 627 968C619.893 966.909 615.426 960.503 608 960C602.367 949.958 583.522 950.638 581 939C575.973 938.439 572.861 934.769 568 934C566.066 923.581 567 912.567 567 902L567 848L567 679L567 402L567 311C567 290.991 566.428 270.922 568 251C570.124 250.101 570.101 250.124 571 248C577.684 247.144 582.635 242.967 588.17 239.488C592.964 236.474 598.099 234.263 602.661 230.855C611.878 223.97 620.11 215.573 632 214C633.242 210.22 636.186 208.764 639.59 206.95C642.448 205.427 645.709 202.895 649 202.562C656.31 201.824 663.517 211.032 669.289 214.388C674.832 217.611 681.741 216.723 684 224M360 217C364.724 218.982 370.91 218 376 218C371.276 216.018 365.09 217 360 217z"/>
<path style="fill:#e5a3c9; stroke:none;" d="M352 222C356.098 222.959 359.797 219.523 364 219.105C372.243 218.286 378.325 220.806 386 223C376.822 215.106 362.051 216.865 352 222z"/>
<path style="fill:#e875b9; stroke:none;" d="M302 334C303.551 340.513 303 347.342 303 354C303 369.946 301.085 387.3 304 403C293.753 398.793 285.931 390.16 274 391.174C262.153 392.18 250.914 401.352 241.285 407.915C222.499 420.722 202.14 431.716 182.715 443.626C173.1 449.52 161.842 455.702 157.818 467C155.904 472.373 157 479.368 157 485L157 521L157 642L157 666C157 669.724 157.666 674.243 156.487 677.826C155.019 682.288 150.608 685.882 148.514 690.17C144.517 698.352 144.346 713.37 147.093 722C155.129 747.242 187.419 756.915 207.56 738.616C218.745 728.454 220.775 712.041 219 698C225.705 700.794 233.292 709.623 240.985 708.601C244.363 708.153 247.013 705.416 250 704C249.971 748.572 249 793.342 249 838C249 857.498 245.475 882.417 256.185 899.696C261.132 907.677 273.102 912.776 281.001 917.198C292.838 923.823 304.477 931.831 315.996 939.064C322.462 943.124 329.204 946.902 335.572 951.095C346.894 958.55 358.579 968.323 373 966.895C381.09 966.094 389.422 959.821 396 955.399C406.48 948.354 417.515 941.208 429 936C429.268 947.049 439.447 949.355 447.576 954.13C452.502 957.024 457.03 960.829 463 960.944C468.954 961.06 473.138 956.962 478 954.086C486.861 948.846 495.392 942.964 504.424 938C510.004 934.933 515.286 931.353 520.754 928.08C523.062 926.699 526.239 925.245 527.397 922.661C529.285 918.449 528 911.541 528 907L528 873L528 753L528 402L528 303L528 275C528 271.308 529.002 265.809 527.397 262.39C526.183 259.806 522.694 258.487 520.424 257C513.69 252.586 502.192 249.054 498 242C489.735 239.673 481.587 232.585 474.17 228.241C469.502 225.507 465.878 222.249 460.039 223.344C452.871 224.688 447.076 231.249 441.001 234.788C435.762 237.84 428.086 240.411 427 247C421.087 246.192 416.901 241.957 411.961 238.921C407.055 235.906 401.842 233.5 397.015 230.308C390.134 225.758 383.569 220.255 375 219.185C359.764 217.283 350.632 224.648 338.424 232.299C325.833 240.191 312.974 248.072 300 255.309C295.8 257.652 291.964 260.888 287.576 262.867C282.584 265.117 277.223 262.714 272.004 263.433C257.202 265.472 246.547 274.389 240.648 288C238.738 292.408 239 297.308 239 302C238.999 323.589 252.179 342.109 275 343.907C285.109 344.703 293.664 338.996 302 334z"/>
<path style="fill:#f8d5e9; stroke:none;" d="M448 228C452.646 229.087 455.881 224.702 460.035 223.151C463.001 222.044 465.211 222.943 468 224C463.214 216.617 453.256 225.085 448 228M350 222L350 224L352 224L352 222L350 222M386 222L386 224L388 224L388 222L386 222z"/>
<path style="fill:#e5a3c9; stroke:none;" d="M460 222C462.052 222.874 463.747 222.953 466 223C463.948 222.126 462.253 222.047 460 222M469.333 224.667C469.278 224.722 469.222 225.778 469.667 225.333C469.722 225.278 469.778 224.222 469.333 224.667M336 234C340.663 231.901 345.608 228.813 349 225C344.121 226.786 338.748 229.472 336 234z"/>
<path style="fill:#f8d5e9; stroke:none;" d="M390 225C391.458 226.081 392.248 226.436 394 227C392.542 225.919 391.752 225.564 390 225M470 225C471.458 226.081 472.248 226.436 474 227C472.542 225.919 471.752 225.564 470 225z"/>
<path style="fill:#e5a3c9; stroke:none;" d="M392 227C396.4 231.21 402.311 234.847 408 237C404.913 232.286 397.313 228.656 392 227M472 227C473.663 228.503 474.896 229.199 477 230C475.314 228.344 474.254 227.749 472 227z"/>
<path style="fill:#f8d5e9; stroke:none;" d="M396 228C397.223 229.195 397.42 229.316 399 230C397.777 228.805 397.58 228.684 396 228M476 228C477.223 229.195 477.42 229.316 479 230C477.777 228.805 477.58 228.684 476 228M400 230L400 232L402 232L402 230L400 230M445 230L445 232C446.635 231.455 446.455 231.635 447 230L445 230M325 240C329.272 238.157 333.542 236.051 336 232C331.862 233.455 327.22 236.135 325 240z"/>
<path style="fill:#e5a3c9; stroke:none;" d="M440 234C442.509 234.566 443.22 233.847 445 232L440 234M366 233L382 240C377.913 234.954 372.362 233.071 366 233z"/>
<path style="fill:#f8d5e9; stroke:none;" d="M432 240C435.563 238.406 438.725 236.12 442 234C437.828 233.391 433.977 236.491 432 240M365 234C367.332 234.985 369.457 234.981 372 235C369.669 234.015 367.543 234.019 365 234z"/>
<path style="fill:#e5a3c9; stroke:none;" d="M483 234C484.663 235.503 485.896 236.199 488 237C486.535 234.878 485.543 234.526 483 234M357 240L362 237C359.259 236.599 358.347 237.657 357 240z"/>
<path style="fill:#f8d5e9; stroke:none;" d="M488.667 236.333C488.222 236.778 489.278 236.722 489.333 236.667C489.778 236.222 488.722 236.278 488.667 236.333M411 238C413.162 240.171 415.059 241.129 418 242C415.812 240.115 413.712 238.994 411 238M491.667 238.333C491.222 238.778 492.278 238.722 492.333 238.667C492.778 238.222 491.722 238.278 491.667 238.333z"/>
<path style="fill:#e5a3c9; stroke:none;" d="M314 245C317.949 245.923 321.562 242.828 325 241C321.142 240.166 317.437 243.297 314 245M352 241C353.809 241.574 354.069 241.465 356 241C354.341 240.594 353.758 240.691 352 241z"/>
<path style="fill:#f8d5e9; stroke:none;" d="M382 240L382 242L384 242L384 240L382 240z"/>
<path style="fill:#e5a3c9; stroke:none;" d="M426 246L422 245C423.54 246.803 424.597 246.832 427 247C427.936 243.842 429.203 242.73 432 241C428.046 239.743 426.578 242.373 426 246M494 240L494 242L496 242L496 240L494 240M384 241C386.955 243.827 390.102 245.758 394 247C391.231 243.948 387.911 242.219 384 241z"/>
<path style="fill:#f8d5e9; stroke:none;" d="M496.667 241.333C496.222 241.778 497.278 241.722 497.333 241.667C497.778 241.222 496.722 241.278 496.667 241.333z"/>
<path style="fill:#e5a3c9; stroke:none;" d="M416 242C417.458 243.081 418.248 243.436 420 244C418.542 242.919 417.752 242.564 416 242M344 246C346.983 246.594 349.267 245.273 352 244C348.96 243.189 346.765 244.612 344 246M498 243C499.625 245.306 501.337 246.063 504 247C502.158 244.796 500.763 243.776 498 243z"/>
<path style="fill:#f8d5e9; stroke:none;" d="M420.667 244.333C420.222 244.778 421.278 244.722 421.333 244.667C421.778 244.222 420.722 244.278 420.667 244.333M502 245C503.458 246.081 504.248 246.436 506 247C504.542 245.919 503.752 245.564 502 245M312.667 246.333C312.222 246.778 313.278 246.722 313.333 246.667C313.778 246.222 312.722 246.278 312.667 246.333z"/>
<path style="fill:#e5a3c9; stroke:none;" d="M310 250L314 248C311.777 247.631 311.266 248.14 310 250M505 247C507.786 251.34 513.157 253.602 518 255C514.275 251.589 509.734 248.771 505 247z"/>
<path style="fill:#f8d5e9; stroke:none;" d="M288 261C291.495 261.807 294.068 259.538 297 257.694C301.271 255.008 305.783 252.781 310 250C302.969 248.83 293.932 257.709 288 261M336 251C338.37 251.589 339.707 250.955 342 250C339.63 249.411 338.293 250.045 336 251z"/>
<path style="fill:#e5a3c9; stroke:none;" d="M397 249C398.248 249.685 398.548 249.749 400 250C398.752 249.315 398.452 249.251 397 249M400 251C403.939 254.769 408.972 257.913 414 260C410.392 255.713 405.341 252.665 400 251z"/>
<path style="fill:#f8d5e9; stroke:none;" d="M512.667 251.333C512.222 251.778 513.278 251.722 513.333 251.667C513.778 251.222 512.722 251.278 512.667 251.333z"/>
<path style="fill:#e5a3c9; stroke:none;" d="M331 256C333.2 254.838 334.597 254.023 336 252C333.515 253.013 332.402 253.726 331 256z"/>
<path style="fill:#f8d5e9; stroke:none;" d="M515 252C516.223 253.195 516.42 253.316 518 254C516.777 252.805 516.58 252.684 515 252M518.667 255.333C518.222 255.778 519.278 255.722 519.333 255.667C519.778 255.222 518.722 255.278 518.667 255.333z"/>
<path style="fill:#e5a3c9; stroke:none;" d="M326 257C327.809 257.574 328.069 257.465 330 257C328.341 256.594 327.758 256.691 326 257M520 256C521.92 258.932 525.989 259.974 527.397 263.213C529.368 267.75 528 275.124 528 280L528 317L528 442L528 923C529.875 918.531 529 912.809 529 908L529 878L529 773L529 410L529 295L529 272C529 268.785 529.769 264.245 527.973 261.39C526.335 258.786 522.702 257.208 520 256z"/>
<path style="fill:#f8d5e9; stroke:none;" d="M408.667 257.333C408.222 257.778 409.278 257.722 409.333 257.667C409.778 257.222 408.722 257.278 408.667 257.333M320 263L328 259C324.328 258.038 322.21 260.211 320 263M361 263C365.549 263.665 368.959 260.7 374 262C369.633 257.96 365.515 260.164 361 263M414.667 260.333C414.222 260.778 415.278 260.722 415.333 260.667C415.778 260.222 414.722 260.278 414.667 260.333M272 261C274.613 262.098 277.164 261.993 280 262C277.387 260.902 274.836 261.007 272 261z"/>
<path style="fill:#e5a3c9; stroke:none;" d="M416.667 261.333C416.222 261.778 417.278 261.722 417.333 261.667C417.778 261.222 416.722 261.278 416.667 261.333z"/>
<path style="fill:#f8d5e9; stroke:none;" d="M529 261L529 751L529 877L529 904C529 913.216 529.764 919.506 524 927C530.671 924.329 530 919.361 530 913L530 890L530 774L530 411L530 306L530 276C530 271.191 530.875 265.469 529 261z"/>
<path style="fill:#e5a3c9; stroke:none;" d="M261 265C264.49 266.361 267.466 264.407 271.015 263.772C274.765 263.102 278.256 263.707 282 264C275.668 259.674 267.458 262.541 261 265M318 262C316.12 263.909 314.458 264.911 312 266C315.561 266.706 318.135 264.989 320 262L318 262M373 262C374.223 263.195 374.42 263.316 376 264C375.02 262.217 375.092 262.406 373 262z"/>
<path style="fill:#f8d5e9; stroke:none;" d="M282 263C284.052 263.874 285.747 263.953 288 264C285.948 263.126 284.253 263.047 282 263z"/>
<path style="fill:#e5a3c9; stroke:none;" d="M419.667 263.333C419.222 263.778 420.278 263.722 420.333 263.667C420.778 263.222 419.722 263.278 419.667 263.333z"/>
<path style="fill:#f8d5e9; stroke:none;" d="M262.667 264.333C262.222 264.778 263.278 264.722 263.333 264.667C263.778 264.222 262.722 264.278 262.667 264.333z"/>
<path style="fill:#e5a3c9; stroke:none;" d="M360 264L360 266L362 266L362 264L360 264z"/>
<path style="fill:#f8d5e9; stroke:none;" d="M378 264C379.223 265.195 379.42 265.316 381 266C379.777 264.805 379.58 264.684 378 264M252 272C255.328 270.016 258.458 267.923 261 265C256.986 266.473 253.995 268.151 252 272M352 268C355.04 268.811 357.235 267.388 360 266C357.035 265.303 354.758 266.78 352 268z"/>
<path style="fill:#e5a3c9; stroke:none;" d="M422 265C424.188 266.885 426.288 268.006 429 269C426.838 266.829 424.941 265.871 422 265M379.667 266.333C379.222 266.778 380.278 266.722 380.333 266.667C380.778 266.222 379.722 266.278 379.667 266.333z"/>
<path style="fill:#f8d5e9; stroke:none;" d="M382 267C383.458 268.081 384.248 268.436 386 269C384.542 267.919 383.752 267.564 382 267M306 272L312 269C308.939 268.182 307.536 269.36 306 272z"/>
<path style="fill:#e5a3c9; stroke:none;" d="M384 269C385.458 270.081 386.248 270.436 388 271C386.542 269.919 385.752 269.564 384 269M304 270L304 272L306 272L306 270L304 270M346 273C348.493 273.251 349.821 272.321 352 271C349.508 270.749 348.179 271.679 346 273M430 270C431.458 271.081 432.248 271.436 434 272C432.686 270.382 432.123 270.307 430 270z"/>
<path style="fill:#f8d5e9; stroke:none;" d="M388.667 271.333C388.222 271.778 389.278 271.722 389.333 271.667C389.778 271.222 388.722 271.278 388.667 271.333M296 276C299.503 276.82 302.121 274.915 304 272C301.168 273.069 298.656 274.545 296 276z"/>
<path style="fill:#e5a3c9; stroke:none;" d="M390 272L390 274L392 274L392 272L390 272M435 272C436.717 273.84 437.566 274.349 440 275C438.337 273.497 437.104 272.801 435 272z"/>
<path style="fill:#f8d5e9; stroke:none;" d="M248.667 273.333C248.222 273.778 249.278 273.722 249.333 273.667C249.778 273.222 248.722 273.278 248.667 273.333M344.667 273.333C344.222 273.778 345.278 273.722 345.333 273.667C345.778 273.222 344.722 273.278 344.667 273.333M392.667 273.333C392.222 273.778 393.278 273.722 393.333 273.667C393.778 273.222 392.722 273.278 392.667 273.333z"/>
<path style="fill:#e5a3c9; stroke:none;" d="M248.667 274.333C248.222 274.778 249.278 274.722 249.333 274.667C249.778 274.222 248.722 274.278 248.667 274.333M336 280C339.05 279.176 341.328 277.688 344 276C340.497 275.18 337.879 277.085 336 280M394.667 275.333C394.222 275.778 395.278 275.722 395.333 275.667C395.778 275.222 394.722 275.278 394.667 275.333M242 285C244.797 282.453 246.273 279.356 248 276C244.316 278.005 243.262 281.105 242 285z"/>
<path style="fill:#f8d5e9; stroke:none;" d="M396 276C398.188 277.885 400.288 279.006 403 280C400.838 277.829 398.941 276.871 396 276z"/>
<path style="fill:#e5a3c9; stroke:none;" d="M442 276C443.896 278.181 445.259 279.069 448 280C446.375 277.694 444.664 276.937 442 276M292 280L296 278C293.692 277.442 293.244 278.004 292 280M272 279C274.613 280.098 277.164 279.993 280 280L280 278C277.216 278.058 274.709 278.352 272 279z"/>
<path style="fill:#f8d5e9; stroke:none;" d="M243.333 280.667C243.278 280.722 243.222 281.778 243.667 281.333C243.722 281.278 243.778 280.222 243.333 280.667z"/>
<path style="fill:#e5a3c9; stroke:none;" d="M264 283L269 281C266.491 280.434 265.78 281.152 264 283z"/>
<path style="fill:#f8d5e9; stroke:none;" d="M269 280C273.104 281.722 278.53 281.435 283 282C280.029 278.6 273.257 280 269 280M289 282C290.58 281.316 290.777 281.195 292 280C290.42 280.684 290.223 280.805 289 282M323 288C327.122 285.898 331.106 283.499 335 281C330.515 280.346 325.273 284.281 323 288z"/>
<path style="fill:#e5a3c9; stroke:none;" d="M403 280C404.686 281.656 405.746 282.251 408 283C406.337 281.497 405.104 280.801 403 280z"/>
<path style="fill:#f8d5e9; stroke:none;" d="M448 280L448 282L450 282L450 280L448 280z"/>
<path style="fill:#e5a3c9; stroke:none;" d="M283 281C285.052 281.874 286.747 281.953 289 282C286.948 281.126 285.253 281.047 283 281M450 281C451.45 282.608 452.051 283.064 454 284C452.55 282.392 451.948 281.936 450 281z"/>
<path style="fill:#f8d5e9; stroke:none;" d="M284 282C285.506 282.683 286.315 282.826 288 283C286.494 282.317 285.685 282.174 284 282M262 283C259.716 285.962 257.292 288.47 256 292C259.7 289.657 261.866 286.797 264 283L262 283M408 283C410.431 285.444 412.727 286.914 416 288C413.569 285.556 411.273 284.086 408 283z"/>
<path style="fill:#e5a3c9; stroke:none;" d="M408.667 284.333C408.222 284.778 409.278 284.722 409.333 284.667C409.778 284.222 408.722 284.278 408.667 284.333z"/>
<path style="fill:#f8d5e9; stroke:none;" d="M240 285L240 288C241.015 286.861 241.309 286.388 242 285L240 285z"/>
<path style="fill:#e5a3c9; stroke:none;" d="M456.667 285.333C456.222 285.778 457.278 285.722 457.333 285.667C457.778 285.222 456.722 285.278 456.667 285.333z"/>
<path style="fill:#f8d5e9; stroke:none;" d="M456 286C457.458 287.081 458.248 287.436 460 288C458.686 286.382 458.123 286.307 456 286M310 296C314.244 294.219 319.34 291.802 322 288C317.463 289.446 312.61 291.931 310 296z"/>
<path style="fill:#e5a3c9; stroke:none;" d="M416 288L416 290L418 290L418 288L416 288z"/>
<path style="fill:#f8d5e9; stroke:none;" d="M461.333 288.667C461.278 288.722 461.222 289.778 461.667 289.333C461.723 289.277 461.777 288.223 461.333 288.667M418 289C419.45 290.608 420.051 291.064 422 292C420.55 290.392 419.949 289.936 418 289z"/>
<path style="fill:#e5a3c9; stroke:none;" d="M462.667 289.333C462.222 289.778 463.278 289.722 463.333 289.667C463.778 289.222 462.722 289.278 462.667 289.333z"/>
<path style="fill:#f8d5e9; stroke:none;" d="M239 290C235.549 300.193 237.616 309.721 239 320C240.566 315.979 238.427 312.151 238.093 308C237.623 302.154 240.243 295.442 239 290M464.667 291.333C464.222 291.778 465.278 291.722 465.333 291.667C465.778 291.222 464.722 291.278 464.667 291.333z"/>
<path style="fill:#e5a3c9; stroke:none;" d="M422.667 292.333C422.222 292.778 423.278 292.722 423.333 292.667C423.778 292.222 422.722 292.278 422.667 292.333M467 292C468.624 294.044 469.643 294.896 472 296C470.376 293.956 469.357 293.104 467 292M254 293L254 296C255.015 294.861 255.309 294.388 256 293L254 293z"/>
<path style="fill:#f8d5e9; stroke:none;" d="M424.667 293.333C424.222 293.778 425.278 293.722 425.333 293.667C425.778 293.222 424.722 293.278 424.667 293.333z"/>
<path style="fill:#e5a3c9; stroke:none;" d="M424 294C425.458 295.081 426.248 295.436 428 296C426.457 294.733 425.952 294.511 424 294M238 296L238 312C239.812 307.681 239.812 300.319 238 296z"/>
<path style="fill:#f8d5e9; stroke:none;" d="M254 296L254 308C255.512 304.396 255.512 299.604 254 296z"/>
<path style="fill:#e5a3c9; stroke:none;" d="M307 298C308.58 297.316 308.777 297.195 310 296C308.42 296.684 308.223 296.805 307 298z"/>
<path style="fill:#f8d5e9; stroke:none;" d="M470 296L470 298L472 298L472 296L470 296z"/>
<path style="fill:#e5a3c9; stroke:none;" d="M430.667 297.333C430.222 297.778 431.278 297.722 431.333 297.667C431.778 297.222 430.722 297.278 430.667 297.333z"/>
<path style="fill:#f8d5e9; stroke:none;" d="M302 299C303.809 299.574 304.069 299.465 306 299C304.341 298.594 303.758 298.691 302 299M432 298C433.904 299.884 435.534 300.953 438 302C436.104 299.819 434.741 298.931 432 298z"/>
<path style="fill:#e5a3c9; stroke:none;" d="M253 299L253 308C254.256 305.006 254.256 301.994 253 299M432.667 299.333C432.222 299.778 433.278 299.722 433.333 299.667C433.778 299.222 432.722 299.278 432.667 299.333M472 299C474.575 310.264 474 321.472 474 333L474 380L474 536C476.189 530.783 475 523.619 475 518L475 482L475 356L475 317C475 310.962 476.031 303.925 472 299M298 307C299.854 304.459 301.247 302.592 304 301C299.706 299.837 298.426 303.266 298 307z"/>
<path style="fill:#f8d5e9; stroke:none;" d="M297 302L297 308C297.951 306.059 298.439 304.102 299 302L297 302z"/>
<path style="fill:#e5a3c9; stroke:none;" d="M438.667 302.333C438.222 302.778 439.278 302.722 439.333 302.667C439.778 302.222 438.722 302.278 438.667 302.333z"/>
<path style="fill:#f8d5e9; stroke:none;" d="M440.667 303.333C440.222 303.778 441.278 303.722 441.333 303.667C441.778 303.222 440.722 303.278 440.667 303.333M473 304L473 460L473 510C473 519.932 473.818 530.206 472 540C475.363 535.561 474 528.379 474 523L474 484L474 358L474 322C474 316.381 475.189 309.217 473 304M444 305C446.124 307.483 450.086 309.19 451.397 312.213C453.469 316.991 452 324.859 452 330L452 369L452 528C454.497 522.049 453 513.42 453 507L453 463L453 309L444 305z"/>
<path style="fill:#e5a3c9; stroke:none;" d="M254 308C254.032 310.875 253.792 313.074 256 315C255.652 312.428 255.222 310.283 254 308M451 310L451 528C452.981 523.28 452 517.08 452 512L452 479L452 365L452 328C452 322.381 453.189 315.217 451 310z"/>
<path style="fill:#f8d5e9; stroke:none;" d="M295 312L294 317C295.318 315.074 295.651 314.234 295 312z"/>
<path style="fill:#e5a3c9; stroke:none;" d="M240 316C240.307 318.123 240.382 318.686 242 320C241.489 318.048 241.267 317.543 240 316M293 317L293 319C294.635 318.455 294.455 318.635 295 317L293 317M259 318L260 322C260.393 320.076 260.146 319.64 259 318z"/>
<path style="fill:#f8d5e9; stroke:none;" d="M291 318L291 320L293 320L293 318L291 318M241.333 320.667C241.278 320.722 241.222 321.778 241.667 321.333C241.722 321.278 241.778 320.222 241.333 320.667M261 320C261.899 322.124 261.876 322.101 264 323C263.027 321.73 262.27 320.973 261 320z"/>
<path style="fill:#e5a3c9; stroke:none;" d="M288 323C289.949 322.064 290.55 321.608 292 320C290.051 320.936 289.45 321.393 288 323M242 322C243.011 324.901 244.424 327.369 246 330C246.502 326.551 244.464 324.284 242 322M262 323C264.487 325.132 266.809 326.268 270 327C267.534 324.964 265.071 323.887 262 323z"/>
<path style="fill:#f8d5e9; stroke:none;" d="M282 325C284.37 325.589 285.707 324.955 288 324C285.726 323.591 284.219 324.212 282 325M270 326C273.163 327.327 276.586 327 280 327C276.837 325.673 273.414 326 270 326z"/>
<path style="fill:#e5a3c9; stroke:none;" d="M272 327C275.853 328.617 280.007 327.951 284 327C280.34 325.687 275.915 326.968 272 327M250 333L252 336C252.699 334.007 251.994 333.847 250 333z"/>
<path style="fill:#f8d5e9; stroke:none;" d="M302 335L302 377C302 385.658 302.586 394.459 301 403C305.467 402.038 303 391.231 303 387L303 350C303 345.519 304.207 338.831 302 335M297 336L296 338L298 338C298 336.147 298.3 336.65 297 336z"/>
<path style="fill:#e5a3c9; stroke:none;" d="M254 337C256.188 338.885 258.288 340.006 261 341C258.838 338.829 256.941 337.871 254 337M286 342C289.563 342.621 292.794 340.523 296 339C292.448 338.169 289.271 340.6 286 342z"/>
<path style="fill:#f8d5e9; stroke:none;" d="M256.667 339.333C256.222 339.778 257.278 339.722 257.333 339.667C257.778 339.222 256.722 339.278 256.667 339.333M259 341C265.035 345.87 272.675 345 280 345C276.794 343.655 273.419 344.203 270 343.699C266.246 343.146 262.735 341.635 259 341z"/>
<path style="fill:#e5a3c9; stroke:none;" d="M262.667 341.333C262.222 341.778 263.278 341.722 263.333 341.667C263.778 341.222 262.722 341.278 262.667 341.333M264 342C266.588 343.378 269.08 343.761 272 344C269.397 342.439 267.022 342.138 264 342z"/>
<path style="fill:#f8d5e9; stroke:none;" d="M272 389C274.613 390.098 277.164 389.993 280 390C277.387 388.902 274.836 389.007 272 389M261 395L269 391C265.324 389.994 262.8 391.839 261 395z"/>
<path style="fill:#e5a3c9; stroke:none;" d="M267 391C271.496 392.755 277.994 391.368 283 392C279.701 388.225 271.456 389.939 267 391M286 393C287.949 394.573 289.588 395.291 292 396C290.051 394.427 288.412 393.709 286 393M256 399C258.357 397.896 259.376 397.044 261 395C258.515 396.013 257.402 396.726 256 399z"/>
<path style="fill:#f8d5e9; stroke:none;" d="M292 396C293.458 397.081 294.248 397.436 296 398C294.542 396.919 293.752 396.564 292 396M254 398L254 400C255.635 399.455 255.455 399.635 256 398L254 398z"/>
<path style="fill:#e5a3c9; stroke:none;" d="M296 398L296 400L298 400L298 398L296 398M232 412C237.703 413.335 249.491 404.272 253 400C245.269 402.771 239.116 408.053 232 412z"/>
<path style="fill:#f8d5e9; stroke:none;" d="M240.667 406.333C240.222 406.778 241.278 406.722 241.333 406.667C241.778 406.222 240.722 406.278 240.667 406.333z"/>
<path style="fill:#e5a3c9; stroke:none;" d="M272 407C274.08 407.507 275.838 407.237 278 407C275.761 406.189 274.353 406.471 272 407z"/>
<path style="fill:#f8d5e9; stroke:none;" d="M270 409L288 413C282.659 408.116 276.823 406.14 270 409z"/>
<path style="fill:#e5a3c9; stroke:none;" d="M268 410C269.58 409.316 269.777 409.195 271 408C269.42 408.684 269.223 408.805 268 410z"/>
<path style="fill:#f8d5e9; stroke:none;" d="M264 412C266.509 412.566 267.22 411.847 269 410L264 412M230 414L234 412C231.692 411.442 231.244 412.004 230 414z"/>
<path style="fill:#e5a3c9; stroke:none;" d="M264.667 411.333C264.222 411.778 265.278 411.722 265.333 411.667C265.778 411.222 264.722 411.278 264.667 411.333M261 414C263.092 413.594 263.02 413.783 264 412C262.42 412.684 262.223 412.805 261 414M288 413C289.663 414.503 290.896 415.199 293 416C291.283 414.16 290.434 413.651 288 413M227 415C228.846 415.468 230.069 415.301 232 415C229.956 414.226 229.155 414.408 227 415z"/>
<path style="fill:#f8d5e9; stroke:none;" d="M254 418C255.659 418.406 256.242 418.309 258 418C256.341 417.594 255.758 417.691 254 418z"/>
<path style="fill:#e5a3c9; stroke:none;" d="M294 417C296.188 418.885 298.288 420.006 301 421C298.838 418.829 296.941 417.871 294 417M212 426C216.263 424.207 220.055 421.425 224 419C219.586 418.278 213.464 421.779 212 426M240 426C244.836 427.131 249.987 422.417 254 420C249.299 418.984 244.047 423.778 240 426z"/>
<path style="fill:#f8d5e9; stroke:none;" d="M302.667 422.333C302.222 422.778 303.278 422.722 303.333 422.667C303.778 422.222 302.722 422.278 302.667 422.333z"/>
<path style="fill:#e5a3c9; stroke:none;" d="M304 422L304 424L306 424L306 422L304 422z"/>
<path style="fill:#f8d5e9; stroke:none;" d="M208 426C209.809 426.574 210.069 426.465 212 426C210.341 425.594 209.758 425.691 208 426z"/>
<path style="fill:#e5a3c9; stroke:none;" d="M307 425C308.751 426.255 309.857 426.614 312 427C310.307 425.938 308.96 425.48 307 425z"/>
<path style="fill:#f8d5e9; stroke:none;" d="M310.667 427.333C310.222 427.778 311.278 427.722 311.333 427.667C311.778 427.222 310.722 427.278 310.667 427.333z"/>
<path style="fill:#e5a3c9; stroke:none;" d="M202 432L208 429C205.03 428.302 203.579 429.489 202 432z"/>
<path style="fill:#f8d5e9; stroke:none;" d="M233 432L240 429C236.78 428.15 235.115 429.599 233 432z"/>
<path style="fill:#e5a3c9; stroke:none;" d="M312.667 428.333C312.222 428.778 313.278 428.722 313.333 428.667C313.778 428.222 312.722 428.278 312.667 428.333z"/>
<path style="fill:#f8d5e9; stroke:none;" d="M314 429C315.393 430.434 316.233 431.045 318 432C316.771 430.13 316.132 429.776 314 429M192 436C195.843 436.899 198.866 434.046 202 432C198.309 431.464 195.177 434.241 192 436z"/>
<path style="fill:#e5a3c9; stroke:none;" d="M224 436C227.503 436.82 230.121 434.915 232 432C229.168 433.069 226.656 434.545 224 436z"/>
<path style="fill:#f8d5e9; stroke:none;" d="M274 432C275.248 432.685 275.549 432.749 277 433C275.752 432.315 275.452 432.251 274 432z"/>
<path style="fill:#e5a3c9; stroke:none;" d="M266 437C269.39 437.793 271.628 435.27 274.998 435.143C277.327 435.055 279.804 436.344 282 437C276.617 431.759 272.054 434.125 266 437M320.667 433.333C320.222 433.778 321.278 433.722 321.333 433.667C321.778 433.222 320.722 433.278 320.667 433.333z"/>
<path style="fill:#f8d5e9; stroke:none;" d="M280 435C282.431 437.444 284.727 438.914 288 440C285.569 437.556 283.273 436.086 280 435M326.667 437.333C326.222 437.778 327.278 437.722 327.333 437.667C327.778 437.222 326.722 437.278 326.667 437.333z"/>
<path style="fill:#e5a3c9; stroke:none;" d="M189 440L192 439C190.222 438.045 189.979 438.234 189 440M220 438C218.607 439.434 217.767 440.045 216 441C218.961 441.623 220.127 440.267 222 438L220 438z"/>
<path style="fill:#f8d5e9; stroke:none;" d="M264.667 438.333C264.222 438.778 265.278 438.722 265.333 438.667C265.778 438.222 264.722 438.278 264.667 438.333z"/>
<path style="fill:#e5a3c9; stroke:none;" d="M328.667 438.333C328.222 438.778 329.278 438.722 329.333 438.667C329.778 438.222 328.722 438.278 328.667 438.333M262 442L266 440C263.777 439.631 263.265 440.14 262 442z"/>
<path style="fill:#f8d5e9; stroke:none;" d="M184 441C185.809 441.574 186.069 441.465 188 441C186.341 440.594 185.758 440.691 184 441z"/>
<path style="fill:#e5a3c9; stroke:none;" d="M288 440C289.975 443.067 292.487 444.192 296 445C293.599 442.804 291.001 441.26 288 440z"/>
<path style="fill:#f8d5e9; stroke:none;" d="M251 448C254.908 446.364 258.465 444.331 262 442C257.67 441.28 253.207 444.391 251 448z"/>
<path style="fill:#e5a3c9; stroke:none;" d="M333 441C334.248 441.685 334.548 441.749 336 442C334.752 441.315 334.452 441.251 333 441M179 446C181.357 444.906 182.599 444.165 184 442C181.515 443.013 180.402 443.726 179 446z"/>
<path style="fill:#f8d5e9; stroke:none;" d="M208 446C210.965 446.697 213.242 445.22 216 444C212.96 443.189 210.765 444.612 208 446z"/>
<path style="fill:#e5a3c9; stroke:none;" d="M336 443C337.663 444.503 338.896 445.199 341 446C339.314 444.344 338.254 443.749 336 443z"/>
<path style="fill:#f8d5e9; stroke:none;" d="M174 446L174 448L176 448L176 446L174 446z"/>
<path style="fill:#e5a3c9; stroke:none;" d="M176.667 446.333C176.222 446.778 177.278 446.722 177.333 446.667C177.778 446.222 176.722 446.278 176.667 446.333M296 446C297.889 447.776 299.657 448.878 302 450C300.392 447.427 298.944 446.71 296 446z"/>
<path style="fill:#f8d5e9; stroke:none;" d="M341 446C342.223 447.195 342.42 447.316 344 448C343.02 446.217 343.092 446.406 341 446z"/>
<path style="fill:#e5a3c9; stroke:none;" d="M173 448C171.41 449.752 170.046 450.794 168 452C171.391 452.688 173.018 450.607 175 448L173 448M184 460C190.599 461.759 201.53 452.455 207 449C200.14 447.999 190.307 457.146 184 460z"/>
<path style="fill:#f8d5e9; stroke:none;" d="M168 451C170.022 451.269 171.043 450.808 173 450C170.908 449.414 169.968 449.986 168 451z"/>
<path style="fill:#e5a3c9; stroke:none;" d="M246 450C247.659 450.406 248.242 450.309 250 450C248.341 449.594 247.758 449.691 246 450z"/>
<path style="fill:#f8d5e9; stroke:none;" d="M302 449C304.188 450.885 306.288 452.006 309 453C306.838 450.829 304.941 449.871 302 449M346 449C348.383 451.573 350.66 452.933 354 454C351.677 451.351 349.367 450.012 346 449M237 457C240.208 455.617 243.084 453.923 246 452C242.073 451.346 238.891 453.669 237 457z"/>
<path style="fill:#e5a3c9; stroke:none;" d="M365 452C369.524 454.031 375.15 454.714 380 456C376.653 451.842 369.967 452.014 365 452z"/>
<path style="fill:#f8d5e9; stroke:none;" d="M164 456L168 454C165.692 453.442 165.244 454.004 164 456z"/>
<path style="fill:#e5a3c9; stroke:none;" d="M354 453C356.613 455.641 358.398 455.746 362 455C359.465 453.861 356.744 453.518 354 453z"/>
<path style="fill:#f8d5e9; stroke:none;" d="M362 453C364.89 454.213 367.874 453.998 371 454C368.11 452.787 365.126 453.002 362 453z"/>
<path style="fill:#e5a3c9; stroke:none;" d="M310.667 454.333C310.222 454.778 311.278 454.722 311.333 454.667C311.778 454.222 310.722 454.278 310.667 454.333z"/>
<path style="fill:#f8d5e9; stroke:none;" d="M312 454L312 456L314 456L314 454L312 454z"/>
<path style="fill:#e5a3c9; stroke:none;" d="M163 456C161.747 458.003 160.758 459.767 160 462C162.015 460.092 163.25 458.792 163 456z"/>
<path style="fill:#f8d5e9; stroke:none;" d="M381 456C381.899 458.124 381.876 458.101 384 459C383.027 457.73 382.27 456.972 381 456M222 464C227.072 465.045 231.977 460.712 236 458C231.133 457.208 226.38 462.086 222 464M315 457C316.458 458.081 317.248 458.436 319 459C317.542 457.919 316.752 457.564 315 457z"/>
<path style="fill:#e5a3c9; stroke:none;" d="M318.667 459.333C318.222 459.778 319.278 459.722 319.333 459.667C319.778 459.222 318.722 459.278 318.667 459.333M384 459C385.103 460.457 385.543 460.897 387 462C386.101 459.877 386.124 459.899 384 459z"/>
<path style="fill:#f8d5e9; stroke:none;" d="M320 460C321.663 461.503 322.896 462.199 325 463C323.314 461.344 322.254 460.749 320 460M159 461C157.496 463.673 156.535 465.981 156 469C157.896 466.621 159.833 464.049 159 461M184.667 461.333C184.222 461.778 185.278 461.722 185.333 461.667C185.778 461.222 184.722 461.278 184.667 461.333z"/>
<path style="fill:#e5a3c9; stroke:none;" d="M181 464L184 463C182.222 462.045 181.979 462.234 181 464z"/>
<path style="fill:#f8d5e9; stroke:none;" d="M387 462L388 466C388.393 464.076 388.146 463.64 387 462z"/>
<path style="fill:#e5a3c9; stroke:none;" d="M158.333 464.667C158.278 464.722 158.222 465.778 158.667 465.333C158.722 465.278 158.778 464.222 158.333 464.667z"/>
<path style="fill:#f8d5e9; stroke:none;" d="M176 466C178.509 466.566 179.22 465.848 181 464L176 466z"/>
<path style="fill:#e5a3c9; stroke:none;" d="M214 470C217.971 470.591 221.435 467.861 224 465C220.4 466.238 217.287 468.096 214 470z"/>
<path style="fill:#f8d5e9; stroke:none;" d="M328 465C329.663 466.503 330.896 467.199 333 468C331.314 466.344 330.254 465.749 328 465M219.667 466.333C219.222 466.778 220.278 466.722 220.333 466.667C220.778 466.222 219.722 466.278 219.667 466.333z"/>
<path style="fill:#e5a3c9; stroke:none;" d="M174 467L173 472C174.366 470.369 175.142 468.962 176 467L174 467z"/>
<path style="fill:#f8d5e9; stroke:none;" d="M390 467L390 472C390.83 469.97 390.83 469.031 390 467z"/>
<path style="fill:#e5a3c9; stroke:none;" d="M333 468C334.686 469.656 335.746 470.251 338 471C336.372 469.257 335.303 468.617 333 468M156 469L156 680C157.981 675.28 157 669.08 157 664L157 633L157 522L157 486C157 480.65 158.085 473.969 156 469z"/>
<path style="fill:#f8d5e9; stroke:none;" d="M212 470C210.607 471.434 209.767 472.045 208 473C210.97 473.698 212.421 472.511 214 470L212 470z"/>
<path style="fill:#e5a3c9; stroke:none;" d="M391 470L391 480C392.346 476.793 392.346 473.207 391 470z"/>
<path style="fill:#f8d5e9; stroke:none;" d="M155 472L155 680C157.085 675.031 156 668.35 156 663L156 628L156 519L156 488C156 482.92 156.981 476.72 155 472M200 478C202.965 478.697 205.242 477.22 208 476C204.889 475.011 202.79 476.467 200 478M344.667 475.333C344.222 475.778 345.278 475.722 345.333 475.667C345.778 475.222 344.722 475.278 344.667 475.333M171 476L171 688C172.981 683.28 172 677.08 172 672L172 640L172 529L172 493C172 487.65 173.085 480.969 171 476M347 477L347 482C347.83 479.969 347.83 479.031 347 477z"/>
<path style="fill:#e5a3c9; stroke:none;" d="M170 480L170 624L170 666C170 674.098 170.932 682.348 168 690C172.077 687.12 171 681.546 171 677L171 641L171 528L171 496C171 490.92 171.981 484.72 170 480M197 480L197 482C198.635 481.455 198.455 481.635 199 480L197 480z"/>
<path style="fill:#f8d5e9; stroke:none;" d="M193 484L197 482C194.692 481.442 194.244 482.004 193 484M390.333 482.667C390.278 482.722 390.222 483.778 390.667 483.333C390.722 483.278 390.778 482.222 390.333 482.667M348.333 483.667C348.278 483.722 348.222 484.778 348.667 484.333C348.722 484.278 348.778 483.222 348.333 483.667z"/>
<path style="fill:#e5a3c9; stroke:none;" d="M193 484L193 688C195.085 683.031 194 676.35 194 671L194 637L194 530L194 499C194 494.191 194.875 488.469 193 484M389 484C388.21 487.929 386.161 490.675 384 494C388.211 491.97 390.896 488.706 389 484M350 488C350.406 490.093 350.217 490.02 352 491C351.309 489.611 351.015 489.139 350 488z"/>
<path style="fill:#f8d5e9; stroke:none;" d="M352 492C353.33 493.753 354.247 494.67 356 496C354.846 493.751 354.249 493.154 352 492M382 494C377.231 499.46 367.566 501.215 362 496L358 497C365.026 502.614 379.454 502.745 384 494L382 494z"/>
<path style="fill:#e5a3c9; stroke:none;" d="M357 496C357.482 498.364 357.636 498.518 360 499C359.027 497.73 358.27 496.973 357 496M360.667 499.333C360.222 499.778 361.278 499.722 361.333 499.667C361.778 499.222 360.722 499.278 360.667 499.333z"/>
<path style="fill:#f8d5e9; stroke:none;" d="M448.667 529.333C448.222 529.778 449.278 529.722 449.333 529.667C449.778 529.222 448.722 529.278 448.667 529.333z"/>
<path style="fill:#e5a3c9; stroke:none;" d="M446.667 530.333C446.222 530.778 447.278 530.722 447.333 530.667C447.778 530.222 446.722 530.278 446.667 530.333z"/>
<path style="fill:#f8d5e9; stroke:none;" d="M440 534C442.965 534.697 445.242 533.22 448 532C444.96 531.189 442.765 532.613 440 534M432 539C434.965 539.697 437.242 538.22 440 537C436.96 536.189 434.765 537.612 432 539z"/>
<path style="fill:#e5a3c9; stroke:none;" d="M473 539C471.161 541.3 469.3 543.161 467 545C470.412 545.073 473.073 542.412 473 539M430.667 540.333C430.222 540.778 431.278 540.722 431.333 540.667C431.778 540.222 430.722 540.278 430.667 540.333M426 542L426 544C427.635 543.455 427.455 543.635 428 542L426 542M422.667 545.333C422.222 545.778 423.278 545.722 423.333 545.667C423.778 545.222 422.722 545.278 422.667 545.333z"/>
<path style="fill:#f8d5e9; stroke:none;" d="M464.667 546.333C464.222 546.778 465.278 546.722 465.333 546.667C465.778 546.222 464.722 546.278 464.667 546.333z"/>
<path style="fill:#e5a3c9; stroke:none;" d="M418 549L421 548C419.222 547.045 418.979 547.234 418 549M448 556C453.159 557.207 459.329 551.129 464 549C458.64 547.577 452.541 553.481 448 556z"/>
<path style="fill:#f8d5e9; stroke:none;" d="M416.667 549.333C416.222 549.778 417.278 549.722 417.333 549.667C417.778 549.222 416.722 549.278 416.667 549.333z"/>
<path style="fill:#e5a3c9; stroke:none;" d="M412 551C413.659 551.406 414.242 551.309 416 551C414.191 550.426 413.931 550.535 412 551z"/>
<path style="fill:#f8d5e9; stroke:none;" d="M408.667 554.333C408.222 554.778 409.278 554.722 409.333 554.667C409.778 554.222 408.722 554.278 408.667 554.333z"/>
<path style="fill:#e5a3c9; stroke:none;" d="M400 560C402.832 558.931 405.344 557.455 408 556C404.497 555.18 401.879 557.085 400 560z"/>
<path style="fill:#f8d5e9; stroke:none;" d="M443 560L448 558C445.469 557.29 444.484 557.869 443 560z"/>
<path style="fill:#e5a3c9; stroke:none;" d="M388 568C391.876 565.692 396.048 563.405 399 560C394.466 561.651 390.276 563.619 388 568M432 568C436.302 566.21 439.954 563.306 444 561C439.384 560.246 434.314 564.187 432 568M360 569C363.941 570.538 368.771 569.035 373 569C368.863 567.264 364.312 568.2 360 569z"/>
<path style="fill:#f8d5e9; stroke:none;" d="M365 569C371.392 571.682 380.944 572.389 387 569C384.5 568.75 382.528 570.111 379.999 570.211C375.172 570.404 369.973 569 365 569z"/>
<path style="fill:#e5a3c9; stroke:none;" d="M419 576C423.145 573.97 427.109 571.488 431 569C426.515 568.346 421.273 572.281 419 576M376 569C378.042 570.416 379.511 570.745 382 571C379.987 569.775 378.341 569.355 376 569z"/>
<path style="fill:#f8d5e9; stroke:none;" d="M355 575L360 572C357.184 571.389 356.325 572.556 355 575z"/>
<path style="fill:#e5a3c9; stroke:none;" d="M352 577C353.457 575.896 353.897 575.457 355 574C352.876 574.899 352.899 574.876 352 577M413 580C415.2 578.838 416.597 578.023 418 576C415.363 576.939 414.382 577.58 413 580M350 578C349.105 580.042 348.464 581.828 348 584C349.643 582.114 350.809 580.208 352 578L350 578z"/>
<path style="fill:#f8d5e9; stroke:none;" d="M410 581L413 580C411.222 579.045 410.979 579.234 410 581z"/>
<path style="fill:#e5a3c9; stroke:none;" d="M408.667 581.333C408.222 581.778 409.278 581.722 409.333 581.667C409.778 581.222 408.722 581.278 408.667 581.333z"/>
<path style="fill:#f8d5e9; stroke:none;" d="M405 584L408 583C406.222 582.045 405.979 582.234 405 584M348 584C347.251 588.036 347.003 591.899 347 596C348.419 592.626 349.076 587.497 348 584z"/>
<path style="fill:#e5a3c9; stroke:none;" d="M400 586C402.509 586.566 403.22 585.848 405 584L400 586M346 587C346 592.691 346.546 597.504 348 603C349.236 598.931 347.657 590.941 346 587z"/>
<path style="fill:#f8d5e9; stroke:none;" d="M388 605C390.37 601.41 390.392 596.754 392.857 593.326C394.617 590.878 397.438 589.433 400 588C391.073 586.513 389.097 598.527 388 605z"/>
<path style="fill:#e5a3c9; stroke:none;" d="M389.333 602.667C389.278 602.722 389.222 603.778 389.667 603.333C389.722 603.278 389.778 602.222 389.333 602.667z"/>
<path style="fill:#f8d5e9; stroke:none;" d="M350.333 603.667C350.278 603.722 350.222 604.778 350.667 604.333C350.722 604.278 350.778 603.222 350.333 603.667z"/>
<path style="fill:#e5a3c9; stroke:none;" d="M350 605C350.684 606.58 350.805 606.777 352 608C351.316 606.42 351.195 606.223 350 605M387 605C383.763 609.108 378.927 611.882 376 616C381.569 614.148 386.157 610.122 389 605L387 605z"/>
<path style="fill:#f8d5e9; stroke:none;" d="M352 608C353.836 610.447 355.237 611.701 358 613C356.164 610.553 354.763 609.299 352 608M376 613C377.943 613.622 378.949 613.436 381 613C379.057 612.378 378.051 612.564 376 613z"/>
<path style="fill:#e5a3c9; stroke:none;" d="M357 613C358.223 614.195 358.42 614.316 360 615C359.02 613.217 359.092 613.406 357 613z"/>
<path style="fill:#f8d5e9; stroke:none;" d="M360 614C364.484 617.063 370.749 616 376 616C371.252 614.008 365.145 614.955 360 614z"/>
<path style="fill:#e5a3c9; stroke:none;" d="M365 616L365 618C367.784 617.942 370.291 617.648 373 617C370.387 615.902 367.836 616.007 365 616M261 632C268.76 628.218 274.434 626.918 283 628C277.236 623.633 264.722 625.751 261 632M443 640C450.595 631.478 455.113 627.001 467 627C457.287 622.924 445.021 629.95 443 640M469 627C470.248 627.685 470.548 627.749 472 628C470.752 627.315 470.452 627.251 469 627z"/>
<path style="fill:#f8d5e9; stroke:none;" d="M283 628C284.751 629.255 285.857 629.614 288 630C286.25 628.745 285.143 628.386 283 628M732 714L732 771C732 780.039 733.218 790.051 731.853 798.985C730.523 807.684 720.683 810.973 721.104 821C721.271 824.978 721.233 830.93 722.843 834.572C726.061 841.847 736.715 848.989 744.83 847.726C758.141 845.655 765.365 833.313 764.985 821C764.822 815.737 762.317 810.767 759.275 806.514C757.098 803.47 754.561 802.033 754.109 797.995C752.906 787.26 754 775.804 754 765L754 701C747.465 699.459 742.391 693.614 737 689.799C734.884 688.301 732.351 687.864 730.166 686.505C723.59 682.416 717.315 677.861 710.714 673.785C705.436 670.526 699.215 669.861 696 664C689.57 662.542 685.725 658.306 680.296 655.126C677.822 653.677 674.67 653.266 673.028 650.656C670.805 647.124 669.378 639.186 669 635L664 635C662.376 624.815 644.387 626.948 637.465 630.591C628.524 635.296 627.595 645.912 628.04 655C628.46 663.569 635.455 670.6 643.424 673.271C649.463 675.294 654.246 672.176 660 672.262C663.634 672.315 668.375 675.381 671.536 677.089C676.095 679.553 679.739 683.18 684.054 685.947C693.749 692.164 704.353 698.041 714.335 703.553C720.255 706.822 725.166 713.067 732 714z"/>
<path style="fill:#e5a3c9; stroke:none;" d="M472 629C474.129 630.626 476.174 632.033 478 634C478.556 630.151 475.293 629.375 472 629M288 630L288 632L290 632L290 630L288 630z"/>
<path style="fill:#f8d5e9; stroke:none;" d="M260 632C258.439 634.318 257.026 636.399 256 639C258.291 636.939 260.163 635.145 260 632M291 632C291.547 633.875 292.11 635.255 293 637C293.242 634.671 292.554 633.782 291 632z"/>
<path style="fill:#e5a3c9; stroke:none;" d="M480 635C481.098 637.686 482.281 640.176 483 643C483.991 639.643 482.85 636.952 480 635M294 636C294.684 637.58 294.805 637.777 296 639C295.316 637.42 295.195 637.223 294 636z"/>
<path style="fill:#f8d5e9; stroke:none;" d="M255.333 640.667C255.278 640.722 255.222 641.778 255.667 641.333C255.722 641.278 255.778 640.222 255.333 640.667M296 640C296.994 645.355 297 650.57 297 656C298.912 651.442 298.811 644.114 296 640z"/>
<path style="fill:#e5a3c9; stroke:none;" d="M441 640C440.078 643.732 439.323 647.378 438 651C441.308 648.665 442.164 643.786 441 640z"/>
<path style="fill:#f8d5e9; stroke:none;" d="M442 640L442 643C442.696 641.446 442.696 641.554 442 640M484 643L484 656C485.591 652.209 485.591 646.791 484 643z"/>
<path style="fill:#e5a3c9; stroke:none;" d="M253 644C253 649.99 253.177 655.25 255 661C255.875 656.853 254.665 647.967 253 644M298 644L298 656C299.512 652.396 299.512 647.604 298 644M485 644L485 656C486.512 652.396 486.512 647.604 485 644z"/>
<path style="fill:#f8d5e9; stroke:none;" d="M440 649C439.455 650.635 439.635 650.455 438 651C439.852 651.365 440.364 650.852 440 649z"/>
<path style="fill:#e5a3c9; stroke:none;" d="M432 656L438 653C435.03 652.302 433.579 653.489 432 656M297 656L297 659C297.696 657.446 297.696 657.554 297 656z"/>
<path style="fill:#f8d5e9; stroke:none;" d="M424 659C426.37 659.589 427.707 658.955 430 658C427.63 657.411 426.293 658.045 424 659z"/>
<path style="fill:#e5a3c9; stroke:none;" d="M483 658C481.685 660.729 480.427 662.982 480 666L482 666C482.565 663.222 483.677 660.743 483 658z"/>
<path style="fill:#f8d5e9; stroke:none;" d="M294 661L294 664C295.015 662.861 295.309 662.388 296 661L294 661M419 663C421.022 663.269 422.043 662.808 424 662C421.86 661.59 421.038 662.031 419 663z"/>
<path style="fill:#e5a3c9; stroke:none;" d="M257 664C257.965 667.012 259.377 668.238 262 670C260.772 667.166 259.662 665.573 257 664M293 664C292.014 665.479 292 665.203 292 667C293.289 665.557 293.401 665.766 293 664M410 668C413.362 668.501 416.084 666.727 418 664C415.013 664.944 412.624 666.286 410 668M288 670C289.58 669.316 289.777 669.195 291 668C289.42 668.684 289.223 668.805 288 670M473 672C475.217 670.837 476.394 669.914 478 668C475.515 669.013 474.402 669.726 473 672z"/>
<path style="fill:#f8d5e9; stroke:none;" d="M262 669C267.349 677.109 265 689.624 265 699L265 768C267.802 761.322 266 751.216 266 744L266 692C266 685.697 268.877 671.764 262 669M408 671C409.58 670.316 409.777 670.195 411 669C409.42 669.684 409.223 669.805 408 671M286 670L286 874C288.085 869.031 287 862.35 287 857L287 821L287 721L287 690C287 683.342 286.449 676.513 288 670L286 670z"/>
<path style="fill:#e5a3c9; stroke:none;" d="M406 670L406 672C407.635 671.455 407.455 671.635 408 670L406 670z"/>
<path style="fill:#f8d5e9; stroke:none;" d="M449 672L453 671C450.953 670.249 450.404 670.344 449 672z"/>
<path style="fill:#e5a3c9; stroke:none;" d="M287 671L287 874C288.875 869.531 288 863.809 288 859L288 828L288 722L288 688C288 682.65 289.085 675.969 287 671M450 671C451.248 671.685 451.548 671.749 453 672C451.752 671.315 451.452 671.251 450 671M264 672L264 821L264 860C264 870.918 263.352 879.982 268 890C268.819 885.807 265.401 882.265 265.058 878C264.263 868.129 265 857.904 265 848L265 733L265 692C265 685.846 266.395 677.707 264 672M398 676C400.222 675.19 401.99 674.261 404 673C401.03 672.302 399.579 673.489 398 676z"/>
<path style="fill:#f8d5e9; stroke:none;" d="M403 674C404.58 673.317 404.777 673.195 406 672C404.42 672.684 404.223 672.805 403 674M445 675C446.924 673.999 447.099 673.922 448 672C445.876 672.899 445.899 672.876 445 675z"/>
<path style="fill:#e5a3c9; stroke:none;" d="M448 672L448 674L450 674L450 672L448 672M454 672L454 674L456 674L456 672L454 672M468 673C469.659 673.406 470.242 673.309 472 673C470.191 672.426 469.931 672.535 468 673z"/>
<path style="fill:#f8d5e9; stroke:none;" d="M456 673C459.697 674.552 464.017 674 468 674C464.303 672.448 459.983 673 456 673z"/>
<path style="fill:#e5a3c9; stroke:none;" d="M459 674C461.613 675.098 464.164 674.993 467 675C464.387 673.902 461.836 674.007 459 674M438 680L445 676C441.63 675.28 439.683 677.175 438 680z"/>
<path style="fill:#f8d5e9; stroke:none;" d="M384 684C389.159 685.207 395.329 679.129 400 677C394.64 675.577 388.541 681.481 384 684M436 678L436 680L438 680L438 678L436 678z"/>
<path style="fill:#e5a3c9; stroke:none;" d="M154 680C152.814 681.186 152.472 681.584 152 683C153.994 682.153 154.699 681.993 154 680M435 680L435 682C436.635 681.455 436.455 681.635 437 680L435 680z"/>
<path style="fill:#f8d5e9; stroke:none;" d="M432 681C433.248 681.685 433.548 681.749 435 682C433.752 681.315 433.452 681.251 432 681M150 683L150 685C151.635 684.455 151.455 684.635 152 683L150 683z"/>
<path style="fill:#e5a3c9; stroke:none;" d="M430.667 683.333C430.222 683.778 431.278 683.722 431.333 683.667C431.778 683.222 430.722 683.278 430.667 683.333M151 684L150 688C151.146 686.36 151.393 685.924 151 684z"/>
<path style="fill:#f8d5e9; stroke:none;" d="M424 688C426.222 687.19 427.99 686.261 430 685C427.03 684.302 425.579 685.489 424 688z"/>
<path style="fill:#e5a3c9; stroke:none;" d="M370 694C374.91 691.718 379.444 688.907 384 686C379.897 685.068 372.234 690.59 370 694M148.333 688.667C148.278 688.722 148.222 689.778 148.667 689.333C148.722 689.278 148.778 688.222 148.333 688.667M413 693C417.047 694.074 420.533 690.92 424 689C420.088 688.085 416.332 691.037 413 693z"/>
<path style="fill:#f8d5e9; stroke:none;" d="M164 695C166.136 693.451 167.451 692.136 169 690C166.313 691.324 165.324 692.313 164 695M197.333 690.667C197.278 690.722 197.222 691.778 197.667 691.333C197.722 691.278 197.778 690.222 197.333 690.667M368 694C371.312 695.821 377.179 693.849 378 690L368 694z"/>
<path style="fill:#e5a3c9; stroke:none;" d="M147 691C144.402 699.195 145 707.489 145 716C147.046 711.124 145.676 705.213 146.093 700C146.342 696.892 147.641 694.04 147 691M198 691L202 698C202.729 695.396 201.921 693.55 201 691L198 691M163 694L162 698C163.146 696.36 163.393 695.924 163 694M365 694L365 696L368 696L368 694L365 694z"/>
<path style="fill:#f8d5e9; stroke:none;" d="M411 694L411 696C412.635 695.455 412.455 695.635 413 694L411 694M362 701L368 697C364.586 696.074 363.173 697.93 362 701z"/>
<path style="fill:#e5a3c9; stroke:none;" d="M400 703L412 697C407.632 695.472 402.239 699.349 400 703z"/>
<path style="fill:#f8d5e9; stroke:none;" d="M406.667 697.333C406.222 697.778 407.278 697.722 407.333 697.667C407.778 697.222 406.722 697.278 406.667 697.333M144 698C144 705.283 143.305 712.879 145 720C146.735 715.162 146.012 702.795 144 698M203 698L204 713C205.871 708.54 204.95 702.344 203 698z"/>
<path style="fill:#e5a3c9; stroke:none;" d="M219 698L219 702L222 699C220.752 698.315 220.452 698.251 219 698M361 698C358.935 701.057 358.118 703.302 358 707L363 698L361 698z"/>
<path style="fill:#f8d5e9; stroke:none;" d="M161.333 699.667C161.278 699.722 161.222 700.778 161.667 700.333C161.722 700.278 161.778 699.222 161.333 699.667M220 699L219 720C221.776 714.223 221 707.264 221 701L224 702C222.771 700.13 222.132 699.776 220 699z"/>
<path style="fill:#e5a3c9; stroke:none;" d="M160 700L160 704C160.71 702.24 160.71 701.76 160 700M224 701C225.663 702.503 226.896 703.199 229 704C227.314 702.344 226.254 701.749 224 701z"/>
<path style="fill:#f8d5e9; stroke:none;" d="M398 702L398 704L400 704L400 702L398 702M160 704L160 714C161.346 710.793 161.346 707.207 160 704z"/>
<path style="fill:#e5a3c9; stroke:none;" d="M247 704C246.014 705.479 246 705.203 246 707C247.289 705.557 247.401 705.766 247 704z"/>
<path style="fill:#f8d5e9; stroke:none;" d="M248 704L245 709L248 708C248 751.331 246.928 794.828 247.985 838C248.254 848.986 248 860.01 248 871C248 878.583 247.588 886.029 251 893C251.878 888.837 249.597 884.259 249.171 880C248.35 871.795 249 863.243 249 855L249 757L249 721C249 715.65 250.085 708.969 248 704z"/>
<path style="fill:#e5a3c9; stroke:none;" d="M249 704L249 714C250.346 710.793 250.346 707.207 249 704M384 805C380.954 797.812 382 789.677 382 782L382 739C382 734.01 382.169 728.986 381.961 724C381.856 721.487 381.019 718.601 382.028 716.188C384.555 710.144 393.96 708.985 398 704C393.001 706.061 383.866 709.353 381.028 714.21C378.426 718.663 380 726.996 380 732L380 776C380 783.464 376.674 800.96 384 805M230 705C232.188 706.885 234.288 708.006 237 709C234.838 706.829 232.941 705.871 230 705z"/>
<path style="fill:#f8d5e9; stroke:none;" d="M358 707L358 770C358 779.247 359.927 790.935 357.687 799.911C357.049 802.466 355.113 804.638 354 807C361.262 801.467 359 791.259 359 783L359 731C359 723.784 360.802 713.678 358 707z"/>
<path style="fill:#e5a3c9; stroke:none;" d="M238 709C240.523 709.99 242.358 709.617 245 709C242.607 708.259 240.507 708.698 238 709z"/>
<path style="fill:#f8d5e9; stroke:none;" d="M236 709C238.348 711.269 239.76 711.376 243 711C240.749 709.911 238.465 709.481 236 709z"/>
<path style="fill:#e5a3c9; stroke:none;" d="M203.333 715.667C203.278 715.722 203.222 716.778 203.667 716.333C203.722 716.278 203.778 715.222 203.333 715.667M218 715L217 726C218.833 722.553 219.519 718.654 218 715z"/>
<path style="fill:#f8d5e9; stroke:none;" d="M379 715L379 803C381.497 797.049 380 788.42 380 782L380 738C380 731.049 381.701 721.436 379 715z"/>
<path style="fill:#e5a3c9; stroke:none;" d="M162 716C162.476 720.612 163.793 723.813 168 726C165.659 722.78 163.962 719.419 162 716z"/>
<path style="fill:#f8d5e9; stroke:none;" d="M201 717L201 720C202.015 718.861 202.309 718.388 203 717L201 717z"/>
<path style="fill:#e5a3c9; stroke:none;" d="M146.333 720.667C146.278 720.722 146.222 721.778 146.667 721.333C146.722 721.278 146.778 720.222 146.333 720.667z"/>
<path style="fill:#f8d5e9; stroke:none;" d="M164.333 720.667C164.278 720.722 164.222 721.778 164.667 721.333C164.722 721.278 164.778 720.222 164.333 720.667z"/>
<path style="fill:#e5a3c9; stroke:none;" d="M200 720L198 725C199.881 723.435 200.942 722.201 202 720L200 720z"/>
<path style="fill:#f8d5e9; stroke:none;" d="M147.333 723.667C147.278 723.722 147.222 724.778 147.667 724.333C147.722 724.278 147.778 723.222 147.333 723.667z"/>
<path style="fill:#e5a3c9; stroke:none;" d="M148 725L148 728C148.696 726.446 148.696 726.554 148 725z"/>
<path style="fill:#f8d5e9; stroke:none;" d="M195 728C196.457 726.897 196.897 726.457 198 725C195.876 725.899 195.899 725.876 195 728M168 726C173.858 732.997 180.56 732 189 732C185.455 730.512 181.698 731.494 178 730.581C174.45 729.704 171.41 727.29 168 726M149 728C149.651 730.434 150.16 731.283 152 733C151.199 730.896 150.503 729.663 149 728z"/>
<path style="fill:#e5a3c9; stroke:none;" d="M192 728C190.777 729.195 190.58 729.316 189 730C191.531 730.71 192.516 730.131 194 728L192 728M214 728C212.645 730.684 211.564 733.047 211 736C213.322 733.566 214.807 731.144 216 728L214 728M152 733L154 736C154.699 734.007 153.994 733.847 152 733z"/>
<path style="fill:#f8d5e9; stroke:none;" d="M155.333 736.667C155.278 736.722 155.222 737.778 155.667 737.333C155.722 737.278 155.778 736.222 155.333 736.667z"/>
<path style="fill:#e5a3c9; stroke:none;" d="M158.667 740.333C158.222 740.778 159.278 740.722 159.333 740.667C159.778 740.222 158.722 740.278 158.667 740.333z"/>
<path style="fill:#f8d5e9; stroke:none;" d="M204 740L204 742C205.635 741.455 205.455 741.635 206 740L204 740M160 742C161.139 743.015 161.612 743.309 163 744C162.02 742.217 162.092 742.406 160 742z"/>
<path style="fill:#e5a3c9; stroke:none;" d="M201 742L201 744C202.635 743.455 202.455 743.635 203 742L201 742z"/>
<path style="fill:#f8d5e9; stroke:none;" d="M197 746C199.092 745.594 199.02 745.783 200 744C198.42 744.684 198.223 744.805 197 746M166.667 745.333C166.222 745.778 167.278 745.722 167.333 745.667C167.778 745.222 166.722 745.278 166.667 745.333z"/>
<path style="fill:#e5a3c9; stroke:none;" d="M176 748C182.694 750.809 190.477 748.122 197 746C193.642 745.066 190.394 746.747 187 747.381C183.352 748.063 179.694 748 176 748M168 746C170.042 747.416 171.511 747.745 174 748C171.943 746.418 170.612 746.174 168 746z"/>
<path style="fill:#f8d5e9; stroke:none;" d="M192.667 747.333C192.222 747.778 193.278 747.722 193.333 747.667C193.778 747.222 192.722 747.278 192.667 747.333M172 748C173.506 748.683 174.315 748.826 176 749C174.494 748.317 173.685 748.174 172 748M180 749C182.052 749.874 183.747 749.953 186 750C183.948 749.126 182.253 749.047 180 749z"/>
<path style="fill:#e5a3c9; stroke:none;" d="M352 806L352 808L354 808L354 806L352 806M384 806L387 810C387.669 807.393 386.475 806.683 384 806z"/>
<path style="fill:#f8d5e9; stroke:none;" d="M351 808L350 812C351.303 810.332 351.553 810.008 351 808M386.333 808.667C386.278 808.722 386.222 809.778 386.667 809.333C386.722 809.278 386.778 808.222 386.333 808.667M388 810C389.256 818.544 389.683 825.347 389 834C393.079 828.029 391.728 815.932 388 810z"/>
<path style="fill:#e5a3c9; stroke:none;" d="M349 811C348.438 812.801 348.176 814.122 348 816C349.133 814.101 349.473 813.143 349 811M346 816C346 821.43 346.006 826.645 347 832C348.443 827.976 347.661 819.959 346 816z"/>
<path style="fill:#f8d5e9; stroke:none;" d="M347 816C347 823.943 346.287 835.269 354 840C350.049 831.159 347.752 825.874 349 816L347 816z"/>
<path style="fill:#e5a3c9; stroke:none;" d="M391 818L391 829C392.431 825.59 392.431 821.41 391 818M388 834C385.252 840.232 380.276 842.223 376 847C381.351 845.16 389.581 840.757 388 834z"/>
<path style="fill:#f8d5e9; stroke:none;" d="M354.667 841.333C354.222 841.778 355.278 841.722 355.333 841.667C355.778 841.222 354.722 841.278 354.667 841.333z"/>
<path style="fill:#e5a3c9; stroke:none;" d="M360 845C363.546 848.728 368.179 848 373 848C369.156 846.383 364.154 845.853 360 845z"/>
<path style="fill:#f8d5e9; stroke:none;" d="M265 853L265 883C267.395 877.293 266 869.154 266 863C266 859.581 266.328 856.166 265 853z"/>
<path style="fill:#e5a3c9; stroke:none;" d="M456 857C460.618 858.938 466.957 858.363 472 859C467.516 855.937 461.251 857 456 857z"/>
<path style="fill:#f8d5e9; stroke:none;" d="M446 866C449.802 864.23 452.947 861.29 457 859.992C462.03 858.382 466.911 859.598 472 860C464.372 855.431 450.218 857.699 446 866z"/>
<path style="fill:#e5a3c9; stroke:none;" d="M451 861L454 860C452.222 859.045 451.979 859.234 451 861M472 860C473.458 861.081 474.248 861.436 476 862C474.542 860.919 473.752 860.564 472 860z"/>
<path style="fill:#f8d5e9; stroke:none;" d="M476.333 862.667C476.278 862.722 476.222 863.778 476.667 863.333C476.722 863.278 476.778 862.222 476.333 862.667z"/>
<path style="fill:#e5a3c9; stroke:none;" d="M477 862C478.123 865.217 480.402 867.216 481.933 870.184C484.304 874.782 484.983 879.919 485 885C488.461 876.752 483.346 867.244 477 862M444 866C442.007 870.794 440.124 874.723 440 880L446 866L444 866z"/>
<path style="fill:#f8d5e9; stroke:none;" d="M482.333 870.667C482.278 870.722 482.222 871.778 482.667 871.333C482.722 871.278 482.778 870.222 482.333 870.667z"/>
<path style="fill:#e5a3c9; stroke:none;" d="M249 876L250 888C251.629 884.109 250.956 879.68 249 876z"/>
<path style="fill:#f8d5e9; stroke:none;" d="M288.667 876.333C288.222 876.778 289.278 876.722 289.333 876.667C289.778 876.222 288.722 876.278 288.667 876.333z"/>
<path style="fill:#e5a3c9; stroke:none;" d="M290 876C291.896 878.181 293.259 879.069 296 880C294.096 878.116 292.466 877.047 290 876z"/>
<path style="fill:#f8d5e9; stroke:none;" d="M484 876C484 882.004 482.991 887.147 482 893C485.125 888.266 486.228 881.308 484 876M296 880C298.283 883.762 301.866 885.682 306 887C303.245 883.796 299.883 881.63 296 880M440.333 880.667C440.278 880.722 440.222 881.778 440.667 881.333C440.722 881.278 440.778 880.222 440.333 880.667z"/>
<path style="fill:#e5a3c9; stroke:none;" d="M434 886C436.573 884.589 438.425 883.468 440 881C437.034 882.174 435.535 883.204 434 886M304 885C305.663 886.503 306.896 887.199 309 888C307.283 886.16 306.434 885.651 304 885M430 886L430 888L432 888L432 886L430 886z"/>
<path style="fill:#f8d5e9; stroke:none;" d="M420 895C424.024 893.379 427.276 891.393 430 888C426.064 889.634 422.761 891.747 420 895z"/>
<path style="fill:#e5a3c9; stroke:none;" d="M310.667 889.333C310.222 889.778 311.278 889.722 311.333 889.667C311.778 889.222 310.722 889.278 310.667 889.333z"/>
<path style="fill:#f8d5e9; stroke:none;" d="M269 890C270.223 891.195 270.42 891.316 272 892C270.777 890.805 270.58 890.684 269 890z"/>
<path style="fill:#e5a3c9; stroke:none;" d="M483 890L483 893C483.696 891.446 483.696 891.554 483 890M252 891C252.426 893.469 253.132 895.645 254 898C254.589 895.174 253.707 893.294 252 891z"/>
<path style="fill:#f8d5e9; stroke:none;" d="M312.667 891.333C312.222 891.778 313.278 891.722 313.333 891.667C313.778 891.222 312.722 891.278 312.667 891.333z"/>
<path style="fill:#e5a3c9; stroke:none;" d="M314 891C316.335 893.875 318.42 895.065 322 896C319.994 893.394 317.043 892.204 314 891M270 892C271.458 893.081 272.248 893.436 274 894C272.542 892.919 271.752 892.564 270 892z"/>
<path style="fill:#f8d5e9; stroke:none;" d="M274.667 894.333C274.222 894.778 275.278 894.722 275.333 894.667C275.778 894.222 274.722 894.278 274.667 894.333z"/>
<path style="fill:#e5a3c9; stroke:none;" d="M418 894L418 896C419.635 895.455 419.455 895.635 420 894L418 894z"/>
<path style="fill:#f8d5e9; stroke:none;" d="M480 894L480 896L482 896L482 894L480 894M322.333 896.667C322.278 896.722 322.222 897.778 322.667 897.333C322.722 897.278 322.778 896.222 322.333 896.667z"/>
<path style="fill:#e5a3c9; stroke:none;" d="M479 896C476.586 898.714 473.734 900.808 472 904C475.227 902.128 479.086 900.025 479 896M278 897C280.188 898.885 282.288 900.006 285 901C282.838 898.829 280.941 897.871 278 897M323 897C324.663 898.503 325.896 899.199 328 900C326.314 898.344 325.254 897.749 323 897M408 900C411.04 900.811 413.235 899.387 416 898C413.035 897.303 410.758 898.78 408 900z"/>
<path style="fill:#f8d5e9; stroke:none;" d="M257 901C257.684 902.58 257.805 902.777 259 904C258.316 902.42 258.195 902.223 257 901M328.667 901.333C328.222 901.778 329.278 901.722 329.333 901.667C329.778 901.222 328.722 901.278 328.667 901.333z"/>
<path style="fill:#e5a3c9; stroke:none;" d="M330 901C331.45 902.608 332.051 903.064 334 904C332.55 902.392 331.949 901.936 330 901z"/>
<path style="fill:#f8d5e9; stroke:none;" d="M286 902C287.458 903.081 288.248 903.436 290 904C288.686 902.382 288.123 902.307 286 902z"/>
<path style="fill:#e5a3c9; stroke:none;" d="M404 902L404 904L406 904L406 902L404 902z"/>
<path style="fill:#f8d5e9; stroke:none;" d="M406.667 902.333C406.222 902.778 407.278 902.722 407.333 902.667C407.778 902.222 406.722 902.278 406.667 902.333z"/>
<path style="fill:#e5a3c9; stroke:none;" d="M440 908C444.507 908.975 448.724 904.39 453 903C448.338 901.725 443.949 905.81 440 908z"/>
<path style="fill:#f8d5e9; stroke:none;" d="M468 903C470.046 903.751 470.596 903.656 472 902L468 903M453 903C454.248 903.685 454.548 903.749 456 904C454.752 903.315 454.452 903.251 453 903z"/>
<path style="fill:#e5a3c9; stroke:none;" d="M260 904C261.226 906.035 261.703 906.326 264 907C262.688 905.541 261.769 904.843 260 904M290 904C292.681 907.821 297.819 910.046 302 912C299.41 908.01 294.427 905.544 290 904z"/>
<path style="fill:#f8d5e9; stroke:none;" d="M334 904L334 906L336 906L336 904L334 904M402 906C403.58 905.316 403.777 905.195 405 904C403.42 904.684 403.223 904.805 402 906z"/>
<path style="fill:#e5a3c9; stroke:none;" d="M459 905C462.349 906.405 465.564 906.015 469 905C465.829 904.238 462.305 904.973 459 905M336 905C339.178 908.206 342.767 910.448 347 912C343.906 908.773 340.332 906.177 336 905M400.667 905.333C400.222 905.778 401.278 905.722 401.333 905.667C401.778 905.222 400.722 905.278 400.667 905.333z"/>
<path style="fill:#f8d5e9; stroke:none;" d="M394 909C396.37 909.589 397.707 908.955 400 908C397.63 907.411 396.293 908.045 394 909M436 912L442 908C438.712 907.325 437.415 909.181 436 912M264.667 908.333C264.222 908.778 265.278 908.722 265.333 908.667C265.778 908.222 264.722 908.278 264.667 908.333z"/>
<path style="fill:#e5a3c9; stroke:none;" d="M266 908C267.896 910.181 269.259 911.069 272 912C270.096 910.116 268.466 909.047 266 908M392 910L392 912L394 912L394 910L392 910z"/>
<path style="fill:#f8d5e9; stroke:none;" d="M302.667 911.333C302.222 911.778 303.278 911.722 303.333 911.667C303.778 911.222 302.722 911.278 302.667 911.333M272 912C273.57 914.583 275.282 915.675 278 917C276.454 914.485 274.683 913.223 272 912z"/>
<path style="fill:#e5a3c9; stroke:none;" d="M304 912C305.517 914.918 306.893 915.922 310 917C308.204 914.702 306.633 913.256 304 912z"/>
<path style="fill:#f8d5e9; stroke:none;" d="M348.333 912.667C348.278 912.722 348.222 913.778 348.667 913.333C348.722 913.278 348.778 912.222 348.333 912.667M384 915C387.007 915.732 389.265 914.368 392 913C389.017 912.406 386.733 913.727 384 915z"/>
<path style="fill:#e5a3c9; stroke:none;" d="M432.667 913.333C432.222 913.778 433.278 913.722 433.333 913.667C433.778 913.222 432.722 913.278 432.667 913.333z"/>
<path style="fill:#f8d5e9; stroke:none;" d="M422 920L432 915C428.044 914.338 424.028 916.645 422 920z"/>
<path style="fill:#e5a3c9; stroke:none;" d="M352 915C355.207 918.072 358.848 920.426 363 922C360.761 918.105 356.228 916.137 352 915M278 916C280.188 917.885 282.288 919.006 285 920C282.853 917.662 281.076 916.799 278 916z"/>
<path style="fill:#f8d5e9; stroke:none;" d="M363 922C370.066 929.045 377.098 921.828 384 918C379.122 917.292 375.535 922.108 371 923.436C368.178 924.262 365.628 922.902 363 922M280.667 918.333C280.222 918.778 281.278 918.722 281.333 918.667C281.778 918.222 280.722 918.278 280.667 918.333z"/>
<path style="fill:#e5a3c9; stroke:none;" d="M312.667 918.333C312.222 918.778 313.278 918.722 313.333 918.667C313.778 918.222 312.722 918.278 312.667 918.333z"/>
<path style="fill:#f8d5e9; stroke:none;" d="M314 918L314 920L316 920L316 918L314 918z"/>
<path style="fill:#e5a3c9; stroke:none;" d="M424.667 918.333C424.222 918.778 425.278 918.722 425.333 918.667C425.778 918.222 424.722 918.278 424.667 918.333M317.333 920.667C317.278 920.722 317.222 921.778 317.667 921.333C317.722 921.278 317.778 920.222 317.333 920.667M416 923C418.961 923.623 420.127 922.267 422 920L416 923M286 921C287.458 922.081 288.248 922.436 290 923C288.542 921.919 287.752 921.564 286 921z"/>
<path style="fill:#f8d5e9; stroke:none;" d="M318 921C319.458 922.081 320.248 922.436 322 923C320.542 921.919 319.752 921.564 318 921M288 923C289.458 924.081 290.248 924.436 292 925C290.542 923.919 289.752 923.564 288 923z"/>
<path style="fill:#e5a3c9; stroke:none;" d="M320 923C322.434 925.322 324.856 926.807 328 928C326.032 924.997 323.402 923.985 320 923z"/>
<path style="fill:#f8d5e9; stroke:none;" d="M414.667 924.333C414.222 924.778 415.278 924.722 415.333 924.667C415.778 924.222 414.722 924.278 414.667 924.333z"/>
<path style="fill:#e5a3c9; stroke:none;" d="M292 925C293.458 926.081 294.248 926.436 296 927C294.542 925.919 293.752 925.564 292 925M412 926C413.659 926.406 414.242 926.309 416 926C414.191 925.426 413.931 925.535 412 926z"/>
<path style="fill:#f8d5e9; stroke:none;" d="M410 926L410 928C411.635 927.455 411.455 927.635 412 926L410 926z"/>
<path style="fill:#e5a3c9; stroke:none;" d="M522 926L522 928C523.635 927.455 523.455 927.635 524 926L522 926z"/>
<path style="fill:#f8d5e9; stroke:none;" d="M298.333 928.667C298.278 928.722 298.222 929.778 298.667 929.333C298.722 929.278 298.778 928.222 298.333 928.667z"/>
<path style="fill:#e5a3c9; stroke:none;" d="M299.667 929.333C299.222 929.778 300.278 929.722 300.333 929.667C300.778 929.222 299.722 929.278 299.667 929.333M330 929C332.383 931.573 334.66 932.933 338 934C335.677 931.351 333.367 930.012 330 929z"/>
<path style="fill:#f8d5e9; stroke:none;" d="M400 932C402.983 932.594 405.267 931.273 408 930C404.993 929.268 402.735 930.632 400 932z"/>
<path style="fill:#e5a3c9; stroke:none;" d="M512 932C515.04 932.811 517.235 931.387 520 930C517.187 929.231 514.696 930.987 512 932M302 931C304.46 933.181 306.965 934.739 310 936C307.654 933.27 305.449 932.025 302 931M398 936L404 933C401.099 932.517 399.592 933.59 398 936z"/>
<path style="fill:#f8d5e9; stroke:none;" d="M338 933C340.346 935.73 342.551 936.975 346 938C343.54 935.819 341.035 934.261 338 933M509 935C511.023 935.269 512.043 934.808 514 934C511.86 933.59 511.038 934.031 509 935M392 937C394.24 937.627 395.79 936.781 398 936C395.57 935.142 394.28 935.817 392 937M310 936L310 938L312 938L312 936L310 936z"/>
<path style="fill:#e5a3c9; stroke:none;" d="M395 936L395 938C396.635 937.455 396.455 937.635 397 936L395 936z"/>
<path style="fill:#f8d5e9; stroke:none;" d="M424 938C425.402 939.351 426.176 940.254 427 942C428.063 940.031 428.532 938.202 429 936L424 938z"/>
<path style="fill:#e5a3c9; stroke:none;" d="M312 937C314.434 939.322 316.856 940.807 320 942C317.617 939.427 315.34 938.067 312 937M342.667 937.333C342.222 937.778 343.278 937.722 343.333 937.667C343.778 937.222 342.722 937.278 342.667 937.333M504 937C505.248 937.685 505.548 937.749 507 938C505.752 937.315 505.451 937.251 504 937M344 938C346.434 940.322 348.857 941.807 352 943C349.677 940.351 347.367 939.012 344 938M416 944C419.245 942.478 422.047 941.043 424 938C420.533 939.318 417.942 940.801 416 944M428 938L428 942C428.71 940.241 428.71 939.759 428 938z"/>
<path style="fill:#f8d5e9; stroke:none;" d="M384 944L392 940C388.398 939.043 385.864 940.964 384 944z"/>
<path style="fill:#e5a3c9; stroke:none;" d="M496 944C498.832 942.931 501.344 941.455 504 940C500.398 939.043 497.864 940.964 496 944z"/>
<path style="fill:#f8d5e9; stroke:none;" d="M350 941C351.663 942.503 352.896 943.199 355 944C353.314 942.344 352.254 941.749 350 941M320 942L320 944L322 944L322 942L320 942M429 942C430.103 944.922 431.078 945.897 434 947C432.466 945.136 430.864 943.534 429 942M323 944C324.686 945.656 325.746 946.251 328 947C326.337 945.497 325.104 944.801 323 944z"/>
<path style="fill:#e5a3c9; stroke:none;" d="M355 944C356.223 945.195 356.42 945.316 358 946C356.777 944.805 356.58 944.684 355 944M376 949C379.057 947.815 380.904 946.518 383 944C379.929 945.137 377.782 946.229 376 949z"/>
<path style="fill:#f8d5e9; stroke:none;" d="M408 947C411.007 947.732 413.265 946.368 416 945C413.017 944.406 410.733 945.727 408 947z"/>
<path style="fill:#e5a3c9; stroke:none;" d="M488 947C491.22 947.85 492.885 946.401 495 944C492.511 944.777 490.328 945.817 488 947M432.667 945.333C432.222 945.778 433.278 945.722 433.333 945.667C433.778 945.222 432.722 945.278 432.667 945.333z"/>
<path style="fill:#f8d5e9; stroke:none;" d="M358 946C359.458 947.081 360.248 947.436 362 948C360.542 946.919 359.752 946.564 358 946z"/>
<path style="fill:#e5a3c9; stroke:none;" d="M328 947C330.431 949.444 332.727 950.914 336 952C333.997 949.148 331.29 948.026 328 947M434.667 947.333C434.222 947.778 435.278 947.722 435.333 947.667C435.778 947.222 434.722 947.278 434.667 947.333M360 948C361.663 949.503 362.896 950.199 365 951C363.283 949.16 362.434 948.651 360 948M406.667 948.333C406.222 948.778 407.278 948.722 407.333 948.667C407.778 948.222 406.722 948.278 406.667 948.333z"/>
<path style="fill:#f8d5e9; stroke:none;" d="M365 950C368.607 951.513 372.259 950.891 376 950C372.569 948.769 368.651 949.925 365 950M404 952L408 950C405.692 949.442 405.244 950.004 404 952M480 954C483.05 953.176 485.328 951.688 488 950C484.638 949.499 481.916 951.273 480 954z"/>
<path style="fill:#e5a3c9; stroke:none;" d="M402 950C400.607 951.434 399.767 952.045 398 953C400.97 953.698 402.421 952.511 404 950L402 950M366 951C368.613 952.098 371.165 951.993 374 952C371.387 950.902 368.836 951.007 366 951z"/>
<path style="fill:#f8d5e9; stroke:none;" d="M336 952L336 954L338 954L338 952L336 952M444 952C445.517 954.918 446.893 955.922 450 957C448.211 954.998 446.215 953.516 444 952z"/>
<path style="fill:#e5a3c9; stroke:none;" d="M338 953C339.223 954.195 339.42 954.316 341 955C339.777 953.805 339.58 953.684 338 953M445 953C446.248 953.685 446.548 953.749 448 954C446.752 953.315 446.452 953.251 445 953M470 960C474.033 958.665 477.692 956.625 480 953C476.08 954.484 472.293 956.425 470 960z"/>
<path style="fill:#f8d5e9; stroke:none;" d="M392 959L400 955C396.328 954.038 394.21 956.211 392 959z"/>
<path style="fill:#e5a3c9; stroke:none;" d="M448.667 955.333C448.222 955.778 449.278 955.722 449.333 955.667C449.778 955.222 448.722 955.278 448.667 955.333z"/>
<path style="fill:#f8d5e9; stroke:none;" d="M342.667 956.333C342.222 956.778 343.278 956.722 343.333 956.667C343.778 956.222 342.722 956.278 342.667 956.333z"/>
<path style="fill:#e5a3c9; stroke:none;" d="M450 956C454.842 961.24 460.17 961.995 467 962L459.09 960.161L450 956M344.667 957.333C344.222 957.778 345.278 957.722 345.333 957.667C345.778 957.222 344.722 957.278 344.667 957.333M390 958L390 960L392 960L392 958L390 958M350.667 960.333C350.222 960.778 351.278 960.722 351.333 960.667C351.778 960.222 350.722 960.278 350.667 960.333z"/>
<path style="fill:#f8d5e9; stroke:none;" d="M467 962C468.58 961.316 468.777 961.195 470 960C468.42 960.684 468.223 960.805 467 962M350.667 961.333C350.222 961.778 351.278 961.722 351.333 961.667C351.778 961.222 350.722 961.278 350.667 961.333z"/>
<path style="fill:#e5a3c9; stroke:none;" d="M352 962C362.831 972.047 376.406 967.637 388 962C382.688 961.074 378.21 965.983 373 966.786C365.254 967.98 359.057 964.189 352 962z"/>
<path style="fill:#f8d5e9; stroke:none;" d="M458 962C460.613 963.098 463.165 962.993 466 963C463.387 961.902 460.836 962.007 458 962M358.667 966.333C358.222 966.778 359.278 966.722 359.333 966.667C359.778 966.222 358.722 966.278 358.667 966.333z"/>
</svg>
